<!DOCTYPE svg PUBLIC "-//W3C//DTD SVG 1.1//EN" "http://www.w3.org/Graphics/SVG/1.1/DTD/svg11.dtd" [
	<!ENTITY ns_flows "http://ns.adobe.com/Flows/1.0/">
]><svg xmlns="http://www.w3.org/2000/svg" width="391" height="95" viewBox="-0.045 -0.003 391 95" overflow="visible" enable-background="new -0.045 -0.003 391 95"><path fill="#0D0394" d="M149.739 43.332c0-2.343-2.773-2.725-6.119-2.917-7.267-.526-12.047-3.012-12.143-10.278-.287-14.437 25.719-14.437 25.528 0h-8.127c0-4.446-8.988-4.063-9.274-.095-.191 2.534 2.294 3.06 5.306 3.394 6.646.717 13.147 1.578 13.147 9.943 0 14.055-27.25 14.438-27.059-.287h8.271c0 4.256 10.47 4.16 10.47.24zm2.724-16.254c-3.585-6.74-17.401-5.02-17.21 3.06.144 5.737 4.159 6.598 9.035 6.98 4.638.334 9.274.43 9.274 6.215 0 7.41-13.481 8.891-17.258 2.82h-.574c3.442 6.836 18.357 5.307 18.357-2.82 0-5.928-4.828-6.358-9.704-6.741-4.685-.335-8.558-1.1-8.558-6.454-.048-7.505 12.43-9.035 16.016-3.06h.622z"/><path fill="#0D0394" d="M191.474 19.764h3.06v33.559h-8.749v-14.915l-7.123 7.458h-.956l-7.075-7.458v14.915h-8.748v-33.559h3.155l13.099 14.533 13.337-14.533zm-1.052 30.26v-22.181h-.669l-11.617 12.238-11.474-12.238h-.621v22.182h.478v-21.56l11.617 12.334 11.808-12.334v21.56h.478z"/><path fill="#0D0394" d="M220.732 49.116h-13.195l-1.959 4.207h-8.367v-1.242l15.058-32.652h3.682l15.107 32.652v1.242h-8.367l-1.959-4.207zm-6.502-24.811h-.287l-11.904 25.767h.623l2.246-4.732h18.5l2.199 4.732h.623l-12-25.767zm-9.13 20.509h18.117l-9.082-19.457h-.049l-8.986 19.457zm12.525-3.395h-6.98l3.441-7.697 3.539 7.697z"/><path fill="#0D0394" d="M253.863 49.116h-13.195l-1.959 4.207h-8.367v-1.242l15.058-32.652h3.682l15.107 32.652v1.242h-8.367l-1.959-4.207zm-6.502-24.811h-.287l-11.904 25.767h.623l2.246-4.732h18.5l2.199 4.732h.623l-12-25.767zm-9.131 20.509h18.117l-9.082-19.457h-.049l-8.986 19.457zm12.526-3.395h-6.98l3.441-7.697 3.539 7.697z"/><path fill="#0D0394" d="M139.178 72.034c0 1.107-.407 1.984-1.221 2.633-.814.647-1.896.971-3.245.971-1.622 0-2.866-.178-3.731-.535v-.926c.956.405 2.176.607 3.658.607 1.09 0 1.953-.249 2.592-.748.639-.5.958-1.154.958-1.966 0-.503-.106-.919-.317-1.248-.212-.33-.558-.631-1.035-.903-.479-.272-1.181-.566-2.106-.881-1.355-.466-2.292-.97-2.81-1.512-.518-.541-.776-1.263-.776-2.164 0-.993.389-1.803 1.167-2.43.777-.626 1.777-.939 3-.939 1.247 0 2.418.236 3.514.709l-.336.799c-1.102-.461-2.155-.69-3.159-.69-.98 0-1.762.228-2.343.681-.581.454-.871 1.071-.871 1.852 0 .49.089.894.268 1.208.179.315.471.598.876.849.405.252 1.102.553 2.088.903 1.035.357 1.812.704 2.333 1.04s.9.717 1.14 1.144.356.94.356 1.546z"/><path fill="#0D0394" d="M143.432 74.838c.568 0 1.065-.048 1.488-.145v.727c-.436.145-.938.217-1.507.217-.871 0-1.515-.232-1.929-.699-.415-.465-.622-1.197-.622-2.196v-6.373h-1.462v-.526l1.462-.408.454-2.233h.463v2.388h2.896v.78h-2.896v6.246c0 .757.133 1.316.399 1.679.268.362.685.543 1.254.543z"/><path fill="#0D0394" d="M156.089 75.456l-4.948-12.255h-.072c.048.751.072 1.519.072 2.306v9.949h-.89v-13.272h1.435l4.702 11.674h.055l4.703-11.674h1.397v13.271h-.935v-10.058c0-.701.036-1.428.108-2.178h-.072l-4.966 12.236h-.589z"/><path fill="#0D0394" d="M165.009 62.846c0-.58.19-.871.571-.871.188 0 .335.076.44.227.106.152.159.367.159.645 0 .272-.053.487-.159.645-.105.158-.253.236-.44.236-.38-.001-.571-.294-.571-.882zm1.026 12.61h-.898v-9.867h.898v9.867z"/><path fill="#0D0394" d="M172.35 75.637c-1.41 0-2.515-.444-3.313-1.334s-1.198-2.131-1.198-3.723c0-1.634.415-2.906 1.244-3.816.829-.911 1.964-1.367 3.404-1.367.854 0 1.67.148 2.451.445l-.245.799c-.854-.284-1.595-.427-2.225-.427-1.21 0-2.127.374-2.75 1.121-.624.747-.936 1.823-.936 3.228 0 1.332.312 2.374.936 3.127.623.754 1.494 1.131 2.614 1.131.896 0 1.728-.16 2.496-.481v.835c-.628.308-1.454.462-2.478.462z"/><path fill="#0D0394" d="M183.195 75.456v-6.399c0-.993-.209-1.714-.626-2.165-.418-.451-1.065-.677-1.942-.677-1.181 0-2.045.298-2.593.895-.547.597-.821 1.563-.821 2.9v5.446h-.898v-14.125h.898v4.494l-.045 1.262h.063c.369-.594.835-1.023 1.397-1.289.563-.267 1.263-.4 2.098-.4 2.239 0 3.358 1.202 3.358 3.604v6.454h-.889z"/><path fill="#0D0394" d="M192.341 75.456l-.227-1.561h-.072c-.497.635-1.007 1.084-1.53 1.348s-1.143.395-1.856.395c-.969 0-1.722-.248-2.261-.744-.538-.496-.808-1.184-.808-2.061 0-.963.4-1.71 1.203-2.242.802-.533 1.962-.814 3.481-.844l1.879-.055v-.654c0-.938-.19-1.646-.572-2.124-.381-.478-.995-.718-1.843-.718-.914 0-1.86.255-2.841.764l-.336-.781c1.083-.508 2.154-.763 3.213-.763 1.084 0 1.894.282 2.429.845.536.562.804 1.439.804 2.633v6.562h-.663zm-3.631-.635c1.053 0 1.884-.301 2.492-.903.607-.603.912-1.438.912-2.511v-.971l-1.725.072c-1.387.066-2.374.283-2.965.649-.59.366-.885.937-.885 1.711 0 .618.189 1.097.567 1.438s.914.515 1.604.515z"/><path fill="#0D0394" d="M199.256 75.637c-1.435 0-2.553-.441-3.354-1.325s-1.203-2.121-1.203-3.713c0-1.573.388-2.833 1.162-3.78s1.818-1.422 3.132-1.422c1.162 0 2.08.406 2.751 1.217s1.008 1.912 1.008 3.305v.727h-7.109c.012 1.355.328 2.391.948 3.104.621.714 1.509 1.071 2.665 1.071.562 0 1.058-.039 1.484-.118.427-.079.966-.248 1.621-.509v.817c-.557.242-1.072.407-1.543.495-.473.088-.993.131-1.562.131zm-.263-9.441c-.95 0-1.713.313-2.287.939-.575.627-.911 1.53-1.008 2.711h6.101c0-1.145-.248-2.039-.746-2.684-.496-.644-1.182-.966-2.06-.966z"/><path fill="#0D0394" d="M205.443 75.456h-.898v-14.125h.898v14.125z"/><path fill="#0D0394" d="M211.182 72.088c0-.836.223-1.547.668-2.134s1.275-1.208 2.492-1.86l-.682-.745c-.398-.43-.695-.851-.889-1.262s-.291-.841-.291-1.289c0-.865.289-1.552.867-2.062.578-.508 1.354-.762 2.328-.762.938 0 1.682.245 2.229.735.549.49.822 1.168.822 2.033 0 .636-.213 1.218-.635 1.747-.424.53-1.189 1.119-2.297 1.766l4.104 4.149c.369-.436.684-.911.943-1.425.26-.515.486-1.123.682-1.825h.871c-.381 1.489-1.014 2.778-1.898 3.867l2.416 2.433h-1.227l-1.752-1.788c-.557.545-1.053.942-1.488 1.194-.436.251-.912.443-1.43.576s-1.107.199-1.766.199c-1.266 0-2.26-.311-2.982-.935s-1.085-1.492-1.085-2.612zm4.13 2.733c.775 0 1.484-.132 2.129-.395.645-.264 1.279-.707 1.902-1.33l-4.385-4.403c-.822.436-1.418.807-1.783 1.112-.367.305-.633.637-.799.994-.168.357-.25.774-.25 1.252 0 .866.281 1.544.844 2.034s1.344.736 2.342.736zm-1.861-10.041c0 .479.121.92.363 1.326.242.405.703.932 1.381 1.579.963-.515 1.631-.995 2.006-1.443s.562-.959.562-1.534c0-.568-.188-1.03-.562-1.385-.375-.354-.883-.531-1.525-.531-.689 0-1.232.176-1.629.527-.397.35-.596.838-.596 1.461z"/><path fill="#0D0394" d="M234.561 70.772h-5.393l-1.852 4.684h-1.025l5.338-13.326h.59l5.229 13.326h-1.043l-1.844-4.684zm-5.057-.836h4.748l-1.807-4.783c-.15-.375-.332-.896-.545-1.562-.162.582-.342 1.107-.535 1.58l-1.861 4.765z"/><path fill="#0D0394" d="M239.068 75.456h-.898v-14.125h.898v14.125z"/><path fill="#0D0394" d="M242.342 75.456h-.898v-14.125h.898v14.125z"/><path fill="#0D0394" d="M255.236 70.772h-5.393l-1.854 4.684h-1.025l5.338-13.326h.59l5.23 13.326h-1.045l-1.841-4.684zm-5.056-.836h4.748l-1.807-4.783c-.152-.375-.334-.896-.545-1.562-.164.582-.342 1.107-.537 1.58l-1.859 4.765z"/><path fill="#0D0394" d="M265.727 75.456v-6.399c0-.993-.209-1.714-.627-2.165s-1.064-.677-1.941-.677c-1.182 0-2.045.298-2.594.895-.547.597-.82 1.563-.82 2.9v5.446h-.898v-9.867h.762l.172 1.353h.055c.643-1.028 1.783-1.544 3.424-1.544 2.238 0 3.357 1.202 3.357 3.604v6.454h-.89z"/><path fill="#0D0394" d="M276.58 65.588v.626l-2.043.128c.545.678.816 1.422.816 2.232 0 .95-.316 1.721-.947 2.311-.633.59-1.482.885-2.547.885-.449 0-.764-.018-.945-.055-.357.188-.629.409-.816.663-.188.255-.281.524-.281.808 0 .315.119.545.359.69.238.146.639.218 1.201.218h1.727c1.07 0 1.891.217 2.459.649s.854 1.072.854 1.92c0 1.04-.422 1.845-1.266 2.41-.846.565-2.047.849-3.609.849-1.24 0-2.201-.238-2.883-.717-.68-.479-1.021-1.145-1.021-1.998 0-.678.211-1.24.631-1.688.422-.448.992-.754 1.713-.918-.297-.127-.535-.307-.713-.539-.18-.233-.268-.501-.268-.804 0-.659.42-1.241 1.262-1.743-.576-.236-1.023-.606-1.344-1.111-.32-.506-.482-1.086-.482-1.739 0-.986.314-1.778.941-2.374.625-.596 1.471-.895 2.537-.895.646 0 1.148.064 1.506.191h3.159zm-7.99 11.538c0 1.355 1.008 2.034 3.023 2.034 2.59 0 3.887-.826 3.887-2.479 0-.594-.203-1.023-.609-1.289-.404-.267-1.062-.4-1.969-.4h-1.617c-1.809.001-2.715.712-2.715 2.134zm.754-8.46c0 .763.232 1.354.695 1.774.463.421 1.082.631 1.855.631.824 0 1.455-.209 1.893-.626.439-.417.658-1.022.658-1.815 0-.842-.225-1.473-.676-1.893-.451-.421-1.082-.631-1.893-.631-.787 0-1.406.225-1.855.676-.451.451-.677 1.079-.677 1.884z"/><path fill="#0D0394" d="M281.66 75.637c-1.434 0-2.553-.441-3.354-1.325-.803-.884-1.203-2.121-1.203-3.713 0-1.573.387-2.833 1.162-3.78.773-.947 1.818-1.422 3.131-1.422 1.162 0 2.08.406 2.752 1.217s1.008 1.912 1.008 3.305v.727h-7.109c.012 1.355.328 2.391.949 3.104s1.508 1.071 2.664 1.071c.562 0 1.059-.039 1.484-.118.428-.079.967-.248 1.621-.509v.817c-.557.242-1.072.407-1.543.495-.472.088-.993.131-1.562.131zm-.264-9.441c-.949 0-1.713.313-2.287.939-.574.627-.91 1.53-1.008 2.711h6.102c0-1.145-.248-2.039-.746-2.684-.496-.644-1.182-.966-2.061-.966z"/><path fill="#0D0394" d="M287.848 75.456h-.898v-14.125h.898v14.125z"/><path fill="#0D0394" d="M296.342 72.887c0 .883-.336 1.562-1.008 2.037-.672.477-1.625.713-2.859.713-1.32 0-2.367-.202-3.141-.607v-.972c.992.496 2.039.744 3.141.744.975 0 1.715-.161 2.219-.485.506-.324.758-.755.758-1.294 0-.496-.201-.913-.604-1.253-.402-.338-1.062-.672-1.982-.998-.986-.357-1.68-.664-2.08-.922-.398-.257-.699-.547-.902-.871s-.305-.719-.305-1.186c0-.738.311-1.322.932-1.752.619-.43 1.486-.645 2.6-.645 1.066 0 2.076.2 3.033.6l-.336.816c-.969-.398-1.867-.599-2.697-.599-.805 0-1.443.134-1.914.399-.473.267-.709.636-.709 1.107 0 .515.184.926.549 1.234.367.309 1.082.654 2.146 1.035.891.321 1.537.609 1.943.867s.709.549.912.876.304.715.304 1.156z"/><path fill="#0D0394" d="M311.73 75.456h-.936l-7.861-11.783h-.072c.072 1.404.109 2.463.109 3.178v8.605h-.891v-13.272h.926l7.854 11.766h.055c-.055-1.09-.082-2.125-.082-3.105v-8.66h.898v13.271z"/><path fill="#0D0394" d="M318.318 75.637c-1.436 0-2.553-.441-3.355-1.325-.801-.884-1.203-2.121-1.203-3.713 0-1.573.389-2.833 1.162-3.78.775-.947 1.818-1.422 3.133-1.422 1.162 0 2.078.406 2.75 1.217s1.008 1.912 1.008 3.305v.727h-7.107c.012 1.355.328 2.391.947 3.104.621.714 1.51 1.071 2.666 1.071.562 0 1.057-.039 1.484-.118.426-.079.967-.248 1.619-.509v.817c-.557.242-1.07.407-1.543.495s-.992.131-1.561.131zm-.263-9.441c-.951 0-1.713.313-2.287.939-.576.627-.912 1.53-1.008 2.711h6.1c0-1.145-.248-2.039-.744-2.684s-1.184-.966-2.061-.966z"/><path fill="#0D0394" d="M326.213 74.838c.568 0 1.064-.048 1.488-.145v.727c-.436.145-.938.217-1.508.217-.871 0-1.514-.232-1.928-.699-.416-.465-.623-1.197-.623-2.196v-6.373h-1.461v-.526l1.461-.408.455-2.233h.463v2.388h2.895v.78h-2.895v6.246c0 .757.133 1.316.398 1.679.269.362.685.543 1.255.543z"/><path fill="#0D0394" d="M333.072 65.397c1.379 0 2.418.435 3.117 1.303.699.869 1.049 2.139 1.049 3.809 0 1.641-.367 2.905-1.104 3.795-.734.89-1.768 1.334-3.1 1.334-.701 0-1.334-.145-1.896-.436-.564-.291-1.008-.701-1.336-1.234h-.08l-.256 1.488h-.562v-14.125h.898v3.549c0 .533-.012 1.023-.035 1.471l-.027.771h.062c.375-.592.828-1.028 1.357-1.307s1.167-.418 1.913-.418zm-.019.817c-1.162 0-1.994.333-2.496.999s-.754 1.764-.754 3.295v.154c0 1.488.262 2.557.785 3.205.523.647 1.34.971 2.447.971 1.078 0 1.889-.377 2.434-1.13s.816-1.826.816-3.218c0-2.851-1.078-4.276-3.232-4.276z"/><path fill="#0D0394" d="M345.033 75.456l-.227-1.561h-.072c-.498.635-1.008 1.084-1.531 1.348s-1.143.395-1.855.395c-.969 0-1.723-.248-2.262-.744-.537-.496-.807-1.184-.807-2.061 0-.963.4-1.71 1.203-2.242.801-.533 1.961-.814 3.48-.844l1.879-.055v-.654c0-.938-.189-1.646-.572-2.124-.381-.478-.994-.718-1.842-.718-.914 0-1.861.255-2.842.764l-.336-.781c1.084-.508 2.154-.763 3.213-.763 1.084 0 1.895.282 2.43.845s.803 1.439.803 2.633v6.562h-.662zm-3.631-.635c1.053 0 1.883-.301 2.492-.903.607-.603.912-1.438.912-2.511v-.971l-1.725.072c-1.387.066-2.375.283-2.965.649s-.885.937-.885 1.711c0 .618.189 1.097.566 1.438.381.343.914.515 1.605.515z"/><path fill="#0D0394" d="M348.859 75.456h-.898v-14.125h.898v14.125z"/><path fill="#0D0394" d="M352.133 75.456h-.898v-14.125h.898v14.125z"/><path fill="#0D0394" d="M364.301 62.829c-1.664 0-2.975.532-3.932 1.598-.955 1.064-1.434 2.523-1.434 4.375 0 1.895.451 3.365 1.352 4.412.902 1.047 2.191 1.57 3.867 1.57 1.113 0 2.137-.142 3.068-.426v.816c-.877.309-1.973.463-3.285.463-1.865 0-3.332-.602-4.402-1.807-1.072-1.203-1.607-2.887-1.607-5.047 0-1.35.256-2.539.768-3.568.51-1.028 1.246-1.822 2.205-2.383.959-.56 2.074-.84 3.346-.84 1.295 0 2.453.242 3.477.727l-.373.836c-.968-.484-1.986-.726-3.05-.726z"/><path fill="#0D0394" d="M369.926 75.456h-.898v-14.125h.898v14.125z"/><path fill="#0D0394" d="M373.08 65.588v6.391c0 .992.209 1.715.627 2.165.418.451 1.064.677 1.943.677 1.174 0 2.037-.297 2.592-.89.553-.593.83-1.559.83-2.896v-5.447h.891v9.867h-.764l-.162-1.361h-.055c-.643 1.029-1.783 1.543-3.424 1.543-2.244 0-3.367-1.201-3.367-3.604v-6.445h.889z"/><path fill="#0D0394" d="M386.504 65.397c1.381 0 2.42.435 3.119 1.303.699.869 1.049 2.139 1.049 3.809 0 1.641-.369 2.905-1.104 3.795-.736.89-1.77 1.334-3.1 1.334-.703 0-1.336-.145-1.898-.436s-1.008-.701-1.334-1.234h-.082l-.254 1.488h-.562v-14.125h.898v3.549c0 .533-.012 1.023-.037 1.471l-.027.771h.064c.375-.592.828-1.028 1.357-1.307s1.167-.418 1.911-.418zm-.018.817c-1.162 0-1.994.333-2.496.999-.504.666-.754 1.764-.754 3.295v.154c0 1.488.262 2.557.785 3.205.523.647 1.338.971 2.447.971 1.076 0 1.887-.377 2.432-1.13s.818-1.826.818-3.218c.001-2.851-1.077-4.276-3.232-4.276z"/><path fill="#0D0394" d="M68.718 2.324c-2.889-.667-6.864-1.083-11.236-1.083-4.371 0-8.347.416-11.236 1.083-3.229.748-5.229 1.937-5.229 3.381 0 1.445 1.999 2.63 5.229 3.377 2.89.669 6.865 1.083 11.236 1.083 4.37 0 8.348-.414 11.236-1.083 3.229-.747 5.229-1.932 5.229-3.377-.001-1.444-2-2.633-5.229-3.381zm-11.237 6.997c-8.631 0-15.628-1.621-15.628-3.618s6.997-3.618 15.628-3.618 15.629 1.622 15.629 3.619-6.998 3.617-15.629 3.617z"/><path fill="#0D0394" d="M66.095 3.251c-2.222-.25-5.271-.407-8.613-.407s-6.392.157-8.613.407c-2.63.297-4.259.886-4.259 1.69 0 .805 1.629 1.393 4.259 1.691 2.222.25 5.271.406 8.613.406s6.392-.156 8.613-.406c2.631-.298 4.259-.886 4.259-1.691 0-.804-1.628-1.393-4.259-1.69zm-8.614 3.051c-6.646 0-12.035-.61-12.035-1.36s5.389-1.359 12.035-1.359 12.035.609 12.035 1.359-5.388 1.36-12.035 1.36z"/><path fill-rule="evenodd" clip-rule="evenodd" fill="#0D0394" d="M108.88 44.338c0-1.632-.176-2.447-.387-3.672-.28-1.663-.561-2.101.457-3.23 1.332-1.538 2.385-3.106 3.437-4.863.315-.533 1.191-2.196 1.331-2.792.422-1.977-1.331 0-1.788.312l-2.453 1.601c-.738.377-2.21 1.129-3.053 1.192-.175-1.757-2.138-6.903-2.944-8.534 1.157.094 2.033.564 3.157.66-.562-2.103-12.521-16.661-14.657-18.794-2.352-2.385-5.825-6.119-9.364-6.119-2.91 0-3.612 1.506-3.612 4.267 0 6.652 3.775 14.091-.842 21.368-.419.689-1.192 1.661-1.403 2.447-.668-.47-1.121-1.035-1.717-1.631-8.029-8.063-22.092-9.946-31.664-3.514-1.017.689-2.104 1.349-3.017 2.164-.596.534-.28.502-1.087.721-.174-.659-.808-1.536-1.122-2.258-.736-1.631-1.191-3.607-1.332-5.397-.245-3.67-.212-5.521.561-9.067.702-3.106 2.664-9.413-2.735-9.193-3.436.125-5.227 1.694-7.505 3.451l-4.874 4.33c-1.438 1.443-6.277 6.839-7.994 8.848-.843 1.035-6.277 7.028-6.665 8.378 1.088-.252 2.315-.66 3.612-.66-.664 1.255-1.368 2.917-1.893 4.393-.525 1.537-.982 3.105-1.72 4.58-3.329-.784-6.451-4.832-7.607-5.146.21 2.856 3.504 7.123 5.329 9.256 1.436 1.694-.175 3.795-.175 7.121-3.576 0-5.996-2.101-3.822.911 1.857 2.572 3.611 3.515 6.066 5.146 0 1.129-.21 1.224-.21 2.479 0 3.481-.35 8 1.437 10.918 1.754 2.918 1.018.188 1.474 5.68.211 2.54.981 6.337 3.086 7.717.525.346.701.378 1.191.189.526-.189.736-.346.877-.941.736.532 2.384 7.623 2.666 8.564.561 1.852 2.067 7.625 3.857 7.625.771 0 .979-.722 1.119-1.35.948 1.1 1.896 2.698 3.58 2.698 1.927 0 1.577-2.29 1.577-3.608 0-2.729-.912-4.676-1.123-7.184 2.527 0 2.7-1.256 2.7-3.576 0-2.261-.456-4.269-.456-6.308 2.806 1.474 3.893-.345 5.016-2.604 1.016-2.039 2.104-4.393 2.63-6.589 2.034.974 1.612-.438 4.453 1.821 3.085 2.478 6.871 4.172 10.905 4.799 4.208.66.945.564 7.083.564.772 0 .071-.282 1.369-.439 1.541-.22 2.979-.471 4.452-.939 7.609-2.449 8.346-6.087 11.713-6.244 1.227-.096 2.278-.221 3.365-.471.105 1.6 1.368 4.675 1.928 6.117.527 1.35 1.053 2.98 2.141 3.923 1.157 1.004 1.858-.107 3.085-.421-.385.849-1.368 8.963.912 8.963h.911c0 2-.49 3.651-.666 4.969-1.682 12.142 4.313 4.491 4.453 4.398.175.721.314 1.305 1.122 1.305 1.823 0 3.894-9.324 4.42-11.459.313-1.223.946-3.219.98-4.379.667.471 1.157 1.244 2.174.648 2.489-1.537 2.982-7.676 2.982-10.718 0-2.447 2.487-2.632 2.487-8.059 0-2.448.316-5.268-.244-7.621 3.225-1.726 4.138-1.475 7.294-3.953.42-.345.665-.5 1.053-.75.736-.471.63-.126.876-1.161l-7.187-.879zm-26.932-26.26c0-5.26-1.366-9.91-1.366-13.931 0-1.788-.036-2.479 2.033-2.479 2.032 0 5.05 2.51 6.452 3.86 4.418 4.36 10.695 12.142 13.991 17.037-.701-.157-1.297-.409-2.032-.472.068.847.174.784.454 1.38.912 2.041 3.506 9.915 3.576 10.072l-5.47 1.255c-1.053.188-5.785.784-6.872.784-.842 0-2.315-.627-4.28-.69l-.841 6.087c-.175 1.663-.211 1.412-1.648 1.756l-2.875.689c0-2.007-.944-6.336-1.647-8l-.07-.157c-1.368-2.949-2.068-3.576-3.682-5.992 1.894-1.348 4.243-7.749 4.277-11.199zm11.115 19.388c1.019.252 3.263.66 3.682 1.256l-6.52 2.447c-1.859.596-2.105 1.349-1.791-.848.178-1.066.317-3.074.702-3.858 1.229.125 2.667.69 3.927 1.003zm-10.904 6.181l-2.911.691c.317-1.38 1.192-1.978 1.964-4.988l.281-.847c.14 1.757.666 1.818.666 5.144zm-6.277-14.807c1.087.282 2.385 2.603 2.947 3.544 2.559 4.267 2.173 6.84-.527 11.671-.666 1.129-.842.565-3.261 1.256-1.998.532-.807.156-2.069.375-2.524.471-11.361 1.256-11.678 1.35.247-1.004 1.157-1.507 1.86-2.196l4.696-5.397c1.684-1.881 4.561-5.709 6.314-8.031.456-.598 1.543-1.976 1.718-2.572zm-6.978-5.868c.351.125 1.263.752 1.717 1.035 2.49 1.507 3.999 3.388 4.806 3.922-1.613 3.075-9.609 12.624-12.624 15.887-.596.659-2.945 3.181-3.542 3.181h-3.157c-1.155 0-2.663-3.934-2.663-5.596 0-1.883 2.91-6.267 3.787-7.646 1.295-1.884 9.502-11.599 11.676-10.783zm-15.921 21.116c.631 1.852 1.124 2.039 1.334 2.949-3.297 0-8.729-.717-12.135-.91l-1.121-4.047c2.628-1.758 2.981-2.918 7.437-2.918 1.399 0 3.049.658 4.029 1.129 0 2.04-.07 2.227.456 3.797zm9.714-23.376c1.824.409 3.611 1.161 4.663 1.38-.386.503-1.543 1.162-2.173 1.664l-1.053.972c-2.771 2.354-4.417 4.173-6.592 7.091-2.561 3.388-2.7 4.079-4.56 7.562-2.63-.596-1.192-1.098-5.855-1.098-3.541 0-5.855 2.885-6.732 3.137.314-.628.562-2.917.807-3.921.314-1.162.808-2.386 1.298-3.421.807-1.694 2.594-4.455 3.718-5.929l3.225-3.984 3.577-3.577c1.297-.879 7.749-.314 9.677.124zm-21.635 25.195c-2.559-.471-6.978-1.036-9.292-1.945.034-.157.104-2.133.14-2.259.211-.753.947-.973 1.999-.973 2.277 0 6.032.283 6.628 2.793.211.815.489 1.599.525 2.384zm3.295-22.527c1.963-1.067 4.699-2.417 7.049-2.636l-3.753 4.109c-.736.754-1.155 1.412-1.787 2.26-2.666 3.514-6.137 9.319-6.137 13.836-2.595-.595-1.403-1.097-5.611-1.097-1.122 0-1.016.188-2.033.219.384-.784.809-2.73 1.087-3.639.981-2.857 2.701-5.272 4.558-7.562 1.683-2.04 4.314-4.235 6.627-5.49zm-30.437-1.287c-.841.032-1.753.283-2.488.472.841-1.256 4.908-5.867 6.136-7.342.454-.564.878-.847 1.334-1.38 3.294-3.733 11.01-12.174 15.428-12.174.737 0 2.49-.188 2.49 1.789 0 2.729-1.79 6.651-1.79 11.922 0 5.302 1.089 7.78 3.122 11.67-1.577 2.386-2.595 2.479-4.699 6.715-1.402 2.792-2.489 6.181-2.489 10.008-2.105-.313-3.437-.848-5.156-1.223-.561-2.353-.314-3.2-.421-5.899-.068-1.411 0-.879-5.188-.847-5.436.03-9.363-1.664-11.013-1.789.141-1.506 3.858-10.291 4.734-11.922zm10.976 19.987c-2.594-.596-4.14-1.318-6.592-2.134-.595-.22-.422-.126-.946-.408l-.422-.25-.56-.347c1.646-.124 6.38-1.976 8.101-2.007l.419 5.146zm-22.897 2.917c3.155.754 5.785-.093 8.311-1.788-.105-1.192-.739-1.851-1.718-2.981-1.299-1.411-3.927-4.393-4.839-5.961l-1.509-2.291c4.232 2.153 8.054 4.234 15.533 4.675 1.019.063 1.579-.345 2.209.502-1.19.094-4.558.941-5.401 1.35l.668 13.899c-4.453-1.036-11.01-3.2-13.254-7.405zm4.733-1.098c.032-1.193.456-2.353.456-3.608.946.251 2.104 1.945 2.243 2.478-.56.377-1.893 1.036-2.699 1.13zm24.231 28.488c-1.438 0-1.93-1.693-2.453-2.697-.527.283-.844.219-1.369.47l.912 8.534c.105 1.443-.21 1.915-.21 3.138-.878-.188-.773-.367-1.157-1.057-.281-.472-.423-1.778-.423-1.778h-1.577c0 2 .632 4.602 1.087 6.516.562 2.416.703 4.042.703 6.992-1.859-.471-3.123-3.533-3.58-5.541-.979 0-.7.148-1.576.243.037 1.663.631 1.391.21 3.147l-.49-.842c-1.053-2.447-4.734-15.149-4.874-17.127-2.666 0-1.402-.062-1.963 2.574-.21 1.098.21.503-.526 1.037-.212-.88-2.693-3.36-2.693-8.977 0-5.27 1.973-6.304-2.027-6.304v2.038c0-.658-.672-3.606-.672-4.736 0-3.482.188-3.295.47-6.495 1.84.472 4.9 1.788 6.388 1.788 0 1.852.27 2.824.27 4.707 3.014 1.601 16.61 6.088 19.802 6.088-.283 1.13-2.921 8.282-4.252 8.282zm13.921-4.926c-.526-.283-.841-.502-1.404-.814-.419-.252-.279-.127-.7-.473l-.419-.438c-.036-.063-.107-.252-.178-.283 1.754 0 7.785.878 10.556.878.314 1.099 2.176 2.604 2.946 4.047-4.243 0-7.435-1.159-10.801-2.917zm21.496 1.288c-2.946 1.191-5.472 1.63-8.907 1.63-.703 0-1.122-.94-1.963-1.85-.562-.628-1.262-1.476-1.649-2.197 3.895 0 6.138.095 9.924-.22 1.193-.094 2.279-.219 3.33-.219.914 1.725 1.019.816 1.369 2.008-.702.156-1.334.533-2.104.848zm5.189-2.887c-.526.502-1.543 1.035-2.209 1.38-.456-.722-.632-.69-1.122-1.568 1.017 0 3.189-.157 3.823-.472-.177.535-.141.345-.492.66zm8.452-3.483c-15.76 3.959-34.309 3.551-50.005-.471-4.771-1.263-9.008-2.869-13.64-4.549-.209-5.773-.603-11.718-.912-17.508 5.644 2.381 11.879 4.533 19.005 5.929 14.194 2.812 29.351 3.1 43.518 0 7.542-1.732 13.46-3.896 20.582-6.619 0 6.212-.454 11.388-.454 17.067-3.121 2.071-14.623 5.272-18.094 6.151zm25.492-4.11c0 .94-.106 1.476-.21 2.228-.069.501-.106.721-.21 1.129-.176.629-.142.502-.49.879 0-2.385.034-1.443-1.544-1.788 0 1.065-.352 1.538-.209 2.667.35 3.199.313 7.719-.843 10.667l-.771 1.726c-.632-.502-.667-1.507-.667-3.138-2.103-.502-1.542-.628-2.594 4.11-.808 3.514-2.278 9.13-3.437 12.519l-.492 1.099c0-1.225.07-2.134.456-2.918-.49-.25-.876-.408-1.578-.439-.455.973-.597 2.07-1.086 3.138-.281.564-.423.879-.843 1.411-.524.659-.561.629-1.192 1.037 0-4.393.423-5.961 1.228-9.758.14-.785.352-2.825.562-3.264-.876-.062-.736-.221-1.789-.221-.034 1.257-.385 1.977-1.12 2.479-.844-1.476.42-10.542.664-11.672-.876-.093-.734-.22-1.788-.22-.069.754-.279 1.066-.63 1.631-.42.628-.526.691-1.159 1.067-1.751-1.161-4.047-8.409-4.084-9.663 5.131-1.096 14.27-4.195 17.27-6.055v-4.268l5.174-.941c1.89-.408 1.382-.188 1.382 6.558zm8.24-11.985c-4.91 3.325-7.116 3.952-13.396 5.05-1.789.313-1.122.816-1.122-4.769-.034-1.6.211-2.321.211-4.016 0-1.349-.211-3.326.246-4.267-.877-.44-1.684-.628-2.7-.911-.526-.125-.946-.281-1.404-.407-.489-.127-1.121-.22-1.542-.502 4.665 0 10.24-1.161 14.447-3.294 1.123-.533 3.157-1.475 3.755-2.322.454.344.313-.22-.809 1.695-1.017 1.725-3.894 5.49-5.225 7.121-.667.785-2.278 2.386-2.278 2.888 0 1.599 5.398 2.729 7.116 2.979.914.126 2.243.157 3.228.377l-.527.378zm-6.451-2.637c-.913-.22-1.789-.658-2.456-1.097.317-.502 1.543-1.946 2-2.259.036 1.192.456 2.103.456 3.356z"/><path fill="#0D0394" d="M93.915 48.784l-.17-.317-.255-.456-.137-.245c.241 0 .445-.009.612-.031.165-.022.308-.06.433-.115.102-.044.179-.093.234-.142l.098-.155-.01-.145-.084-.096-.217-.085-.623-.186c-.184-.057-.326-.117-.434-.178-.104-.06-.196-.134-.28-.224-.08-.089-.146-.188-.194-.3-.087-.196-.119-.401-.096-.616.023-.214.113-.403.272-.566.159-.163.376-.305.653-.429.291-.129.68-.252 1.167-.367l.496.976c-.302-.001-.571.049-.805.154-.165.073-.277.146-.334.216-.056.07-.069.145-.034.223l.047.069.078.054.117.044.32.085.402.114c.165.052.298.11.398.171.1.061.189.135.268.22.077.087.142.186.188.297.076.168.107.339.101.512-.011.173-.066.339-.169.497-.104.161-.23.296-.383.408-.153.111-.321.207-.498.287-.122.054-.278.11-.474.168-.188.057-.419.11-.687.158m-1.977.867l-.241-.803-.918-2.758-.523-1.474.669-.249.643-.254.354 1.142.936 2.787.394 1.106-.618.232-.696.271zm-3.438-1.274l1.07-.367-.033-.109c-.045-.127-.104-.229-.173-.306-.071-.078-.151-.124-.241-.139-.088-.017-.18-.009-.272.024l-.174.099-.13.159-.067.198-.013.195.033.246zm2.402.504c.021.156.092.531.205 1.122-.231.143-.429.251-.593.329-.163.078-.334.146-.507.206-.257.089-.501.15-.732.185-.229.032-.439.025-.632-.024-.192-.049-.367-.132-.524-.249-.159-.117-.302-.271-.43-.463s-.23-.399-.307-.621c-.109-.314-.158-.641-.153-.978.008-.338.069-.621.184-.851.117-.229.275-.417.478-.566.203-.15.423-.265.659-.347.246-.084.491-.133.738-.144.244-.013.476.036.685.144.213.108.385.251.522.433.135.181.243.39.324.625.049.139.087.299.118.481l-2.269.785.034.108c.09.263.24.429.451.497.207.068.433.059.67-.022.145-.049.301-.124.47-.224.17-.102.373-.244.609-.426zm-5.502.01c-.143.01-.269.029-.377.06-.197.056-.356.149-.476.276-.117.126-.192.287-.222.481-.03.192-.02.382.034.566.039.135.095.253.168.356.076.102.171.173.287.211.114.037.228.041.334.011.157-.045.278-.15.366-.314.083-.166.119-.366.1-.604-.017-.238-.089-.586-.214-1.043zm-1.333 3.881c.313.029.587.035.813.017s.421-.051.583-.097c.115-.033.216-.077.303-.135l.197-.17.1-.203.031-.244-.033-.289-.1-.44-.164.272-.188.217c-.08.075-.17.143-.271.198-.1.059-.212.104-.332.14-.278.079-.551.077-.818-.006-.266-.082-.49-.24-.677-.473-.185-.232-.323-.502-.41-.808-.102-.361-.138-.705-.101-1.029.033-.327.132-.621.295-.886.162-.265.364-.475.605-.626.242-.153.53-.277.862-.373.19-.055.409-.104.662-.147.249-.044.599-.081 1.048-.117l.275 1.257.316 1.372.065.242.32 1.222c.038.155.065.307.076.455.013.133.007.264-.02.391-.025.125-.069.241-.129.348-.066.115-.148.217-.247.302-.103.087-.225.173-.372.253-.163.083-.337.152-.523.206l-.393.095-.487.084-.438.051-.477.018-.165-.486c-.025-.096-.093-.3-.206-.611zm-5.122.749c-.068-.587-.163-1.232-.291-1.933-.124-.702-.255-1.363-.39-1.982l.69-.152.646-.157.087.521.137-.265.162-.206.223-.184.275-.146.325-.105c.161-.037.32-.054.481-.05.162.004.302.031.421.079.12.048.225.117.32.208.094.092.165.198.216.315.051.119.092.245.12.375l.117.627.261 1.384.156.754-.633.138-.722.175c-.032-.234-.091-.58-.173-1.039-.084-.459-.146-.779-.187-.964-.067-.286-.16-.473-.284-.563-.122-.09-.256-.118-.403-.084-.128.031-.24.106-.333.229-.094.123-.147.282-.167.48-.021.198.006.509.076.934.071.425.151.856.244 1.292l-.652.143-.722.176zm-3.942-1.917l1.049-.185-.691-1.413c-.082.401-.153.731-.215.989l-.143.609zm-2.153 3.06l.184-.601 1.087-4.036.11-.451.132-.568.867-.145.881-.164.774 1.511 1.542 2.894.294.524-.707.117-.833.155c-.173-.404-.404-.875-.69-1.41l-1.699.3c-.117.484-.232 1.015-.347 1.593l-.771.127-.824.154zm-3.366.317l-.024-.838-.174-2.902-.125-1.558.712-.067.684-.08.047 1.195.181 2.934.097 1.17-.657.064-.741.082zm-2.17.243l-.013-.838-.12-2.904-.099-1.561.714-.055.686-.068.026 1.196.13 2.937.073 1.171-.659.054-.738.068zm-3.763-2.333l1.064-.056-.515-1.487c-.13.389-.24.707-.332.957l-.217.586zm-2.51 2.775l.255-.573 1.57-3.874.165-.434.203-.547.88-.038.893-.054.583 1.592 1.179 3.061.229.557-.72.029-.845.053c-.122-.422-.293-.916-.514-1.482l-1.724.09c-.175.467-.354.979-.538 1.539l-.777.032-.839.049zm-4.042-1.226l-.331-.449c-.135-.176-.277-.369-.42-.576l-.178.133-.113.105-.094.139-.063.162-.022.165c0 .116.029.222.086.315.056.096.131.166.227.215.099.047.205.072.321.072l.229-.035.177-.088.181-.158zm.905-1.527l.606.012.577-.012-.014.393-.049.369-.097.389-.113.322-.151.32c.148.207.286.394.418.56.132.165.25.321.351.467l-.781-.009-.747.009-.27-.386-.287.199-.293.144s-.241.083-.372.106c-.132.025-.267.037-.404.037-.352 0-.673-.066-.96-.2-.29-.134-.509-.337-.655-.61s-.221-.565-.221-.875c0-.354.09-.672.269-.953.183-.279.499-.547.952-.801-.086-.168-.145-.316-.179-.442-.033-.126-.049-.243-.049-.354 0-.184.037-.358.119-.529.081-.171.196-.318.348-.44.154-.121.312-.202.475-.243.161-.04.347-.06.556-.06.365 0 .746.049 1.145.147l.021 1.042.005.163c-.16-.074-.294-.127-.4-.153l-.297-.041c-.109 0-.209.018-.296.054-.085.034-.148.088-.191.16-.044.073-.066.146-.066.223l.018.146.082.212.177.328.198.304.243.315.269.363.034-.148.018-.2.011-.328zm-7.355 2.666l.09-.834.234-2.896.093-1.561.715.033.688.016-.12 1.189-.228 2.931-.068 1.171-.661-.027-.743-.022zm-2.626-2.641l1.129.078.01-.111c.012-.135-.002-.252-.038-.35-.034-.099-.091-.174-.167-.223-.074-.049-.162-.078-.26-.084l-.199.022-.18.097-.142.155-.088.176-.065.24zm2.015 1.402c-.04.152-.123.524-.249 1.113-.269.041-.493.063-.674.072-.182.006-.365.002-.549-.01-.271-.02-.519-.059-.745-.116-.223-.06-.416-.149-.573-.27-.158-.12-.285-.265-.386-.435-.102-.169-.172-.367-.215-.593s-.057-.458-.039-.692c.022-.33.104-.65.242-.959.139-.309.305-.545.502-.712.195-.166.414-.276.658-.335s.492-.08.744-.062c.261.019.504.069.734.155.231.084.425.219.577.4.151.184.254.383.308.602.054.221.073.454.059.703-.012.146-.039.311-.08.488l-2.396-.162-.013.111c-.02.278.054.49.222.635.165.143.375.225.627.241.149.011.323.003.519-.023.194-.025.437-.076.727-.151zm-7.095-2.242l.137-.519.103-.448c.671-.093 1.24-.116 1.712-.066.269.027.51.088.725.18.217.092.379.221.485.385.111.165.15.39.119.674-.016.145-.063.467-.154.969-.085.502-.183 1.161-.285 1.979l-.666-.078-.68-.063c.062-.28.16-.86.292-1.743l-.213.078-.267.066-.301.073-.191.089-.124.125-.049.15c-.01.088.014.166.067.234.055.068.15.109.283.123l.156.004.229-.047c-.086.193-.192.476-.324.848-.198.016-.385.015-.562-.005-.282-.028-.511-.099-.689-.207-.177-.107-.307-.267-.387-.477-.08-.209-.108-.413-.089-.611.013-.122.044-.239.095-.35.049-.112.12-.219.208-.321.095-.103.197-.188.313-.256.112-.066.267-.126.46-.176.191-.051.434-.092.723-.125l.336-.047.219-.056.111-.067.066-.086.027-.1c.01-.098-.019-.178-.086-.238-.068-.061-.171-.098-.311-.111-.391-.044-.887.033-1.488.22zm-5.343 2.08c.09-.377.161-.688.21-.933.105-.511.222-1.106.352-1.784.084-.449.161-.88.229-1.295.066-.415.131-.818.185-1.21l.701.106.693.089-.202.921-.188.929.218-.215.177-.124.194-.09.217-.051.266-.017.293.021c.193.026.374.078.548.152.173.074.314.181.425.319.109.14.175.288.198.444.025.156.025.326-.001.504l-.042.275-.084.43-.258 1.288-.071.399-.058.402-.674-.103-.738-.097c.087-.336.177-.725.268-1.164.093-.442.153-.771.184-.99.033-.241.012-.417-.062-.526-.075-.11-.187-.175-.333-.196-.133-.019-.253-.004-.362.043-.099.041-.191.115-.273.217-.071.088-.14.218-.204.391-.075.213-.156.529-.24.953-.047.234-.112.602-.195 1.104l-.64-.098-.733-.094zm-.359-1.437l-.189.545-.203.594c-.372.027-.727.009-1.062-.057-.243-.047-.453-.116-.624-.208-.205-.108-.379-.265-.518-.466-.145-.207-.233-.438-.268-.689-.043-.295-.028-.615.036-.959.061-.314.167-.61.317-.884.151-.274.338-.489.559-.642.221-.154.448-.242.685-.262.239-.021.491-.006.763.047.158.03.318.071.477.122.156.05.348.129.573.24l-.01.088-.04.284-.066.455-.046.344c-.294-.188-.566-.307-.813-.355-.175-.034-.339-.026-.487.026-.148.052-.269.145-.361.278-.092.135-.157.299-.194.491-.037.196-.042.366-.011.509.032.144.104.262.217.352.113.091.243.15.394.18l.274.027.286-.008.311-.052zm-5.308.182l.231-.75.208-.759.258-1.024c.093-.376.193-.813.306-1.311l.694.155.686.138c-.139.471-.254.886-.352 1.246-.091.359-.184.742-.274 1.144l-.325 1.467-.686-.154-.746-.152zm1.139-4.32l.173-.71.039-.206.677.152.666.134-.058.194-.118.469-.06.249-.637-.143-.682-.139zm-7.338 2.658l.286-.737.909-2.578.567-1.706.954.264.883.228-.06.51c-.009.117-.02.348-.026.693-.008.346-.021.643-.037.892-.016.25-.052.674-.11 1.272.2-.368.38-.681.535-.943.154-.262.341-.556.557-.885l.414-.647.27-.478.97.269.902.233c-.269.832-.488 1.55-.665 2.152-.347 1.18-.578 1.992-.698 2.437l-.13.506-.609-.172-.628-.16c.078-.221.244-.75.497-1.59.255-.84.412-1.379.475-1.614l.109-.429-.844 1.411-1.192 1.967-.589-.166-.633-.16.147-2.175.056-1.165.014-.166.036-.345-.363 1.019-.68 2.104-.139.478-.58-.164-.598-.155zm-8-3.211c.187-.52.329-.94.423-1.26.184.22.36.392.523.516.163.125.314.216.454.274.184.078.343.111.475.094.135-.014.229-.081.278-.201l.033-.123-.007-.151-.061-.205-.345-.838-.168-.413c-.059-.169-.097-.319-.114-.45-.019-.132-.019-.257 0-.378.018-.121.053-.242.105-.363.06-.146.145-.279.248-.399.104-.12.228-.222.369-.306.142-.083.306-.137.494-.162.186-.025.371-.017.554.023.186.04.367.098.548.175.354.15.722.361 1.102.631l-.17.462-.248.747c-.155-.17-.306-.306-.451-.409-.145-.102-.274-.177-.388-.227-.164-.069-.316-.093-.454-.068-.139.021-.228.086-.271.188l-.033.149.026.199.098.278.219.475.141.301.121.318.091.347.03.291-.023.245-.078.244c-.092.214-.224.4-.398.557-.171.156-.367.262-.586.316-.221.055-.438.064-.659.03-.219-.034-.438-.097-.66-.191-.341-.144-.748-.384-1.218-.716z"/><path fill="#0D0394" d="M78.253 58.057l.125.779c.046.24.102.426.166.558.063.133.155.231.275.295.123.063.248.083.377.059.136-.026.241-.091.327-.194s.138-.242.157-.412c.023-.172.017-.349-.018-.525-.053-.268-.159-.47-.316-.606-.158-.138-.356-.183-.594-.136-.148.027-.313.088-.499.182m-.865 3.103c-.093-.813-.22-1.758-.38-2.832-.162-1.075-.292-1.884-.397-2.423l.731-.133.648-.136c.029.407.078.851.148 1.331l.454-.168.323-.083c.345-.066.654-.063.922.013.271.076.509.245.721.509.21.263.356.604.438 1.026.084.422.086.826.008 1.209-.078.382-.22.684-.432.902-.212.22-.478.36-.804.424-.12.023-.238.031-.354.025s-.225-.027-.324-.064l-.258-.131-.258-.207.082.49-.601.109-.667.139zm-1.117.275l-.646.083-.64.098-.079-.525-.171.287-.161.178-.207.146-.277.114-.321.074c-.179.025-.351.025-.517 0-.166-.024-.317-.086-.454-.182-.138-.096-.239-.213-.303-.35-.062-.137-.109-.301-.136-.491l-.021-.218-.067-.881-.106-1.072-.08-.68.716-.092.656-.102.1 1.482.04.459.021.164c.039.27.112.443.223.525.109.082.229.113.364.094l.157-.05.146-.098.104-.133.077-.192.043-.283c.006-.14.002-.314-.015-.523l-.073-.791-.09-.808.721-.093.635-.098c.039.659.085 1.285.14 1.876.051.593.124 1.288.221 2.082zm-6.366.935l-.039-.838-.223-2.898-.153-1.555.711-.08.683-.092.066 1.193.234 2.93.115 1.168-.656.076-.738.096zm-1.055-1.157l-.041.646c-.018.275-.022.489-.023.64-.48.122-.91.201-1.292.233-.37.033-.716.01-1.043-.066s-.633-.223-.919-.438c-.283-.217-.5-.48-.639-.793-.144-.313-.233-.67-.268-1.07-.04-.467 0-.893.12-1.279.121-.387.314-.718.579-.992.266-.274.566-.479.901-.616.333-.137.681-.222 1.05-.253.336-.031.755-.019 1.261.037l.034.324.062.467.064.439c-.272-.049-.492-.08-.661-.092-.165-.01-.321-.01-.462.002-.306.027-.575.121-.81.282-.232.161-.41.38-.525.659-.118.277-.164.578-.136.9.026.295.106.541.244.742.138.199.31.348.521.445s.465.133.76.107c.161-.014.336-.045.522-.092.19-.042.423-.121.701-.232zm-8.283 1.819l.035-.838.03-2.906-.017-1.563.716-.018.687-.031-.037 1.194-.024 2.939.014 1.173-.659.02-.745.03zm-2.561.084l.047-.836.082-2.905.011-1.563.716-.006.687-.02-.059 1.194-.073 2.938-.008 1.174-.66.008-.743.016zm-4.261-2.895l.09-.529.062-.457c.661-.151 1.229-.224 1.701-.215.269.004.515.043.737.116.221.071.396.187.518.341.124.154.182.374.177.66-.002.145-.024.473-.067.979-.044.508-.081 1.172-.114 1.995l-.668-.019-.685-.004c.037-.285.086-.873.14-1.764l-.207.099-.26.087-.292.1-.183.107-.112.133-.037.156c-.001.088.029.163.088.227.062.064.158.096.294.098l.155-.01.225-.064c-.068.197-.152.488-.251.87-.198.032-.382.048-.558.045-.284-.005-.518-.054-.704-.146-.188-.093-.33-.24-.429-.443-.099-.201-.146-.4-.142-.6.002-.122.024-.241.062-.356.04-.116.101-.229.182-.339.084-.109.179-.203.288-.281.108-.076.255-.148.443-.215.188-.068.424-.13.71-.188l.329-.078.214-.072.104-.078.058-.091.02-.103c.003-.098-.033-.174-.106-.229-.071-.055-.179-.082-.319-.086-.393-.005-.882.112-1.463.354zm-3.777-.201l-.067.787c-.012.244-.003.438.028.581.028.146.093.263.194.354.104.091.22.14.354.147.134.007.257-.029.363-.111.106-.078.19-.199.253-.359.062-.162.1-.334.107-.515.015-.271-.037-.493-.159-.665-.119-.171-.303-.262-.542-.275-.149-.008-.327.011-.531.056zm-1.59 2.802c.105-.812.212-1.759.316-2.841s.172-1.897.201-2.445l.741.047.663.026c-.07.401-.131.844-.18 1.325l.482-.051.334-.002c.351.018.648.096.891.234.243.139.434.361.575.666.141.308.2.675.18 1.104-.023.43-.119.822-.287 1.175-.167.353-.38.609-.637.771-.258.161-.553.234-.882.216-.125-.005-.24-.025-.353-.061-.109-.034-.207-.08-.296-.141l-.222-.189-.199-.264-.038.496-.609-.041-.68-.025zm-.729-1.223l-.161.624-.117.467c-.23.037-.409.059-.536.062l-.369-.009c-.193-.016-.363-.051-.509-.101-.147-.05-.268-.131-.358-.238-.091-.108-.149-.228-.175-.36-.024-.133-.033-.271-.019-.414l.015-.138.063-.438.19-1.332-.53-.047.092-.701.043-.36.564.049c.024-.118.065-.374.119-.774l.595-.083.699-.119c-.045.337-.089.699-.13 1.089l.776.068c-.064.535-.104.89-.119 1.062l-.784-.067-.126.964-.031.277c-.01.125-.007.229.008.312.019.086.053.148.112.189.056.041.121.065.192.072l.174.002.322-.056zm-5.542-1.888l1.123.137.018-.111c.015-.135.01-.252-.021-.352-.03-.1-.081-.178-.156-.23-.071-.053-.156-.086-.254-.099l-.2.013-.186.088-.148.146-.097.172-.079.236zm1.939 1.504c-.05.15-.15.518-.308 1.1-.271.025-.495.037-.677.035-.183-.002-.364-.016-.549-.038-.268-.033-.513-.085-.736-.153-.221-.072-.406-.172-.558-.3s-.272-.278-.363-.454c-.092-.174-.151-.375-.184-.604-.028-.229-.031-.461-.002-.693.04-.328.137-.645.292-.945.152-.301.332-.527.537-.684.205-.155.43-.254.675-.3.25-.046.497-.054.746-.023.26.032.5.097.728.194.226.096.409.239.552.43.141.189.235.396.278.617.044.222.05.457.021.703-.019.146-.055.309-.107.485l-2.381-.288-.018.111c-.035.276.028.491.187.645.157.151.362.244.612.274.152.019.323.019.521.003.197-.016.441-.054.734-.115zm-9.546-.258l.21-.792.612-2.703.229-1.092.104-.598.923.171.807.134.921 3.227.122.472c.101-.425.232-1.021.394-1.79s.27-1.302.322-1.598l.66.125.664.107-.281 1.128-.709 3.144-.183.91-.818-.152-.878-.146-.165-.59-.374-1.19c-.123-.392-.236-.763-.335-1.116-.067-.226-.136-.472-.199-.738l-.392 1.801-.303 1.523-.636-.121-.695-.116z"/><polygon fill-rule="evenodd" clip-rule="evenodd" fill="#0D0394" points="22.383,50.36 23.648,50.74 24.829,46.541 26.193,47.083 26.607,45.764 25.168,45.463 25.796,43.93 24.532,43.549 24.167,45.162 22.803,44.619 22.389,45.939 23.827,46.239"/></svg>